<?xml version="1.0" encoding="UTF-8" standalone="no"?>
<!-- Created with Inkscape (http://www.inkscape.org/) -->

<svg
   width="69.9963mm"
   height="120.03265mm"
   viewBox="0 0 69.9963 120.03265"
   version="1.1"
   id="svg1"
   inkscape:version="1.3.2 (091e20e, 2023-11-25, custom)"
   sodipodi:docname="permaculture_polyculture_card.svg"
   xmlns:inkscape="http://www.inkscape.org/namespaces/inkscape"
   xmlns:sodipodi="http://sodipodi.sourceforge.net/DTD/sodipodi-0.dtd"
   xmlns:xlink="http://www.w3.org/1999/xlink"
   xmlns="http://www.w3.org/2000/svg"
   xmlns:svg="http://www.w3.org/2000/svg">
  <sodipodi:namedview
     id="namedview1"
     pagecolor="#ffffff"
     bordercolor="#000000"
     borderopacity="0.25"
     inkscape:showpageshadow="2"
     inkscape:pageopacity="0.0"
     inkscape:pagecheckerboard="0"
     inkscape:deskcolor="#d1d1d1"
     inkscape:document-units="mm"
     inkscape:zoom="2.0938812"
     inkscape:cx="153.78141"
     inkscape:cy="410.24295"
     inkscape:window-width="1918"
     inkscape:window-height="1000"
     inkscape:window-x="1913"
     inkscape:window-y="0"
     inkscape:window-maximized="0"
     inkscape:current-layer="layer1"
     showgrid="false" />
  <defs
     id="defs1" />
  <g
     inkscape:label="Ebene 1"
     inkscape:groupmode="layer"
     id="layer1">
    <image
       xlink:href="https://upload.wikimedia.org/wikipedia/commons/a/a1/Acer_saccharum_1-jgreenlee_%285098070608%29.jpg"
       src="yourfallback.png"
       width="70"
       height="55"
       id="image1"
       x="0"
       y="0"
       preserveAspectRatio="xMidYMin slice" />
    <rect
       style="fill:none;stroke:none;stroke-width:0.0613598"
       id="rect1"
       width="69.938637"
       height="119.93864"
       x="0.05766594"
       y="0.051009405"
       ry="4.296248" />
    <g
       id="h_fruit_group"
       inkscape:label="h_fruit_group"
       transform="matrix(0.26458333,0,0,0.26458333,4.4545787,73.784573)">
      <rect
         style="fill:#ff0000;fill-opacity:1;stroke:#1a1a1a;stroke-width:0.188976;stroke-dasharray:none"
         id="b_fruit-0_element"
         width="11.0923"
         height="11.0923"
         x="42.148579"
         y="152.41412" />
      <rect
         style="fill:#ff0000;fill-opacity:1;stroke:#1a1a1a;stroke-width:0.188976;stroke-dasharray:none"
         id="b_fruit-1_element"
         width="11.0923"
         height="11.0923"
         x="53.155148"
         y="152.38416" />
      <rect
         style="fill:#ff0000;fill-opacity:1;stroke:#1a1a1a;stroke-width:0.188976;stroke-dasharray:none"
         id="b_fruit-2_element"
         width="11.0923"
         height="11.0923"
         x="64.28714"
         y="152.38416" />
      <rect
         style="fill:#ff0000;fill-opacity:1;stroke:#1a1a1a;stroke-width:0.188976;stroke-dasharray:none"
         id="b_fruit-3_element"
         width="11.0923"
         height="11.0923"
         x="75.375999"
         y="152.38416" />
      <rect
         style="fill:#ff0000;fill-opacity:1;stroke:#1a1a1a;stroke-width:0.188976;stroke-dasharray:none"
         id="b_fruit-4_element"
         width="11.0923"
         height="11.0923"
         x="86.507996"
         y="152.38416" />
      <rect
         style="fill:#ff0000;fill-opacity:1;stroke:#1a1a1a;stroke-width:0.188976;stroke-dasharray:none"
         id="b_fruit-7_element"
         width="11.0923"
         height="11.0923"
         x="119.82397"
         y="152.40324" />
      <rect
         style="fill:#ff0000;fill-opacity:1;stroke:#1a1a1a;stroke-width:0.188976;stroke-dasharray:none"
         id="b_fruit-9_element"
         width="11.0923"
         height="11.0923"
         x="142.0817"
         y="152.38416" />
      <rect
         style="fill:#ff0000;fill-opacity:1;stroke:#1a1a1a;stroke-width:0.188976;stroke-dasharray:none"
         id="b_fruit-11_element"
         width="11.0923"
         height="11.0923"
         x="164.34819"
         y="152.39053" />
      <rect
         style="fill:#ff0000;fill-opacity:1;stroke:#1a1a1a;stroke-width:0.188976;stroke-dasharray:none"
         id="b_fruit-10_element"
         width="11.0923"
         height="11.0923"
         x="153.21294"
         y="152.45024" />
      <rect
         style="fill:#ff0000;fill-opacity:1;stroke:#1a1a1a;stroke-width:0.188976;stroke-dasharray:none"
         id="b_fruit-8_element"
         width="11.0923"
         height="11.0923"
         x="130.93161"
         y="152.38081" />
      <rect
         style="fill:#ff0000;fill-opacity:1;stroke:#1a1a1a;stroke-width:0.188976;stroke-dasharray:none"
         id="b_fruit-6_element"
         width="11.0923"
         height="11.0923"
         x="108.72293"
         y="152.39259" />
      <rect
         style="fill:#ff0000;fill-opacity:1;stroke:#1a1a1a;stroke-width:0.188976;stroke-dasharray:none"
         id="b_fruit-5_element"
         width="11.0923"
         height="11.0923"
         x="97.596848"
         y="152.38416" />
      <path
         d="m 47.60299,161.71423 q -1.16259,0 -1.972429,-0.80984 -0.809839,-0.80983 -0.809839,-1.97242 0,-0.93405 0.551486,-1.67433 0.551486,-0.74029 1.445785,-0.99864 -0.198722,-0.0498 -0.38753,-0.14402 -0.188807,-0.0945 -0.337846,-0.24341 -0.32791,-0.3279 -0.422309,-0.78002 -0.0944,-0.45212 -0.04471,-0.91915 0.467023,-0.0498 0.919141,0.0446 0.45212,0.0945 0.780028,0.42231 0.228537,0.22861 0.33288,0.5167 0.104342,0.28817 0.134133,0.60615 0.129177,-0.30804 0.313005,-0.58129 0.183826,-0.27327 0.412371,-0.50181 0.1093,-0.10925 0.278228,-0.10925 0.16893,0 0.278225,0.10925 0.109299,0.10925 0.109299,0.27823 0,0.16893 -0.109299,0.27823 -0.218599,0.2185 -0.38753,0.48193 -0.16893,0.26331 -0.248416,0.56142 0.874427,0.27823 1.411007,1.00858 0.536581,0.73035 0.536581,1.64452 0,1.16259 -0.809839,1.97242 -0.809839,0.80983 -1.97243,0.80983 z m 0,-0.79494 q 0.824744,0 1.406038,-0.58129 0.581297,-0.5813 0.581297,-1.40603 0,-0.82475 -0.581297,-1.40604 -0.581294,-0.5813 -1.406038,-0.5813 -0.824744,0 -1.406038,0.5813 -0.581297,0.58129 -0.581297,1.40604 0,0.82473 0.581297,1.40603 0.581294,0.58129 1.406038,0.58129 z m 0,-1.98732 z"
         id="h_fruit_icon"
         style="fill:#000000;stroke-width:0.00993667"
         inkscape:label="h_fruit_icon" />
    </g>
    <g
       id="h_flower_group"
       inkscape:label="h_flower_group"
       transform="matrix(0.26458333,0,0,0.26458333,10.821339,87.179625)">
      <rect
         style="fill:#ff00cc;fill-opacity:1;stroke:#1a1a1a;stroke-width:0.188976;stroke-dasharray:none"
         id="b_flower-0_element"
         width="11.0923"
         height="11.0923"
         x="18.115065"
         y="112.98215" />
      <rect
         style="fill:#ff00cc;fill-opacity:1;stroke:#1a1a1a;stroke-width:0.188976;stroke-dasharray:none"
         id="b_flower-1_element"
         width="11.0923"
         height="11.0923"
         x="29.121637"
         y="112.95216" />
      <rect
         style="fill:#ff00cc;fill-opacity:1;stroke:#1a1a1a;stroke-width:0.188976;stroke-dasharray:none"
         id="b_flower-2_element"
         width="11.0923"
         height="11.0923"
         x="40.253635"
         y="112.95216" />
      <rect
         style="fill:#ff00cc;fill-opacity:1;stroke:#1a1a1a;stroke-width:0.188976;stroke-dasharray:none"
         id="b_flower-3_element"
         width="11.0923"
         height="11.0923"
         x="51.342487"
         y="112.95216" />
      <rect
         style="fill:#ff00cc;fill-opacity:1;stroke:#1a1a1a;stroke-width:0.188976;stroke-dasharray:none"
         id="b_flower-4_element"
         width="11.0923"
         height="11.0923"
         x="62.474491"
         y="112.95216" />
      <rect
         style="fill:#ff00cc;fill-opacity:1;stroke:#1a1a1a;stroke-width:0.188976;stroke-dasharray:none"
         id="b_flower-7_element"
         width="11.0923"
         height="11.0923"
         x="95.790466"
         y="112.97127" />
      <rect
         style="fill:#ff00cc;fill-opacity:1;stroke:#1a1a1a;stroke-width:0.188976;stroke-dasharray:none"
         id="b_flower-9_element"
         width="11.0923"
         height="11.0923"
         x="118.04819"
         y="112.95216" />
      <rect
         style="fill:#ff00cc;fill-opacity:1;stroke:#1a1a1a;stroke-width:0.188976;stroke-dasharray:none"
         id="b_flower-11_element"
         width="11.0923"
         height="11.0923"
         x="140.25499"
         y="112.9884" />
      <rect
         style="fill:#ff00cc;fill-opacity:1;stroke:#1a1a1a;stroke-width:0.188976;stroke-dasharray:none"
         id="b_flower-10_element"
         width="11.0923"
         height="11.0923"
         x="129.08987"
         y="112.95856" />
      <rect
         style="fill:#ff00cc;fill-opacity:1;stroke:#1a1a1a;stroke-width:0.188976;stroke-dasharray:none"
         id="b_flower-8_element"
         width="11.0923"
         height="11.0923"
         x="106.89811"
         y="112.94884" />
      <rect
         style="fill:#ff00cc;fill-opacity:1;stroke:#1a1a1a;stroke-width:0.188976;stroke-dasharray:none"
         id="b_flower-6_element"
         width="11.0923"
         height="11.0923"
         x="84.689423"
         y="112.96062" />
      <rect
         style="fill:#ff00cc;fill-opacity:1;stroke:#1a1a1a;stroke-width:0.188976;stroke-dasharray:none"
         id="b_flower-5_element"
         width="11.0923"
         height="11.0923"
         x="73.563339"
         y="112.95216" />
      <path
         d="m 23.001396,121.71001 q -0.08503,-0.24566 -0.217311,-0.45354 -0.132281,-0.20796 -0.311805,-0.38738 -0.179534,-0.17945 -0.387396,-0.31654 -0.207878,-0.137 -0.453538,-0.22211 0.01886,0.27399 0.132282,0.51021 0.113394,0.23622 0.302359,0.42519 0.188967,0.18888 0.42519,0.3071 0.236218,0.11813 0.51023,0.137 z m 1.020457,0 q 0.274012,-0.0283 0.51023,-0.14172 0.236216,-0.11342 0.42519,-0.30236 0.188968,-0.18888 0.302359,-0.42519 0.113394,-0.23622 0.141737,-0.51021 -0.245666,0.0851 -0.458263,0.2174 -0.212593,0.13228 -0.392119,0.31179 -0.179535,0.17944 -0.311808,0.39213 -0.132281,0.21268 -0.21731,0.45825 z m -0.51023,-3.40153 q 0.623615,0 1.067704,-0.44408 0.444087,-0.44409 0.444087,-1.0677 v -0.45353 l -0.661408,0.55746 -0.850383,-1.02991 -0.85038,1.02991 -0.661408,-0.55746 v 0.45353 q 0,0.62361 0.444087,1.0677 0.444089,0.44408 1.067701,0.44408 z m -0.377946,4.15742 q -0.94487,0 -1.606279,-0.66141 -0.661408,-0.66141 -0.661408,-1.60627 v -0.75589 q 0.670859,-0.009 1.266126,0.27402 0.595268,0.28345 1.001561,0.76532 v -1.44564 q -0.812589,-0.13228 -1.351164,-0.76061 -0.538575,-0.62835 -0.538575,-1.47872 v -1.28502 q 0,-0.24568 0.217311,-0.34488 0.21731,-0.0993 0.406293,0.0613 l 0.699204,0.6047 0.65196,-0.79369 q 0.113394,-0.13228 0.292908,-0.13228 0.179535,0 0.292911,0.13228 l 0.65196,0.79369 0.699202,-0.60472 q 0.188967,-0.16058 0.406293,-0.0613 0.217311,0.0993 0.217311,0.34487 v 1.28502 q 0,0.8504 -0.538575,1.47873 -0.538576,0.62835 -1.351162,0.76063 v 1.44564 q 0.406293,-0.48187 1.001561,-0.76532 0.595267,-0.28348 1.266124,-0.27402 v 0.75589 q 0,0.94486 -0.661409,1.60627 -0.661408,0.66141 -1.606276,0.66141 z m 0.377946,-5.3763 z m 1.199986,3.93065 z m -2.390521,0 z"
         id="h_flower_icon"
         style="fill:#000000;stroke-width:0.0094487"
         inkscape:label="h_flower_icon" />
    </g>
    <g
       id="h_human-usages_group"
       inkscape:label="h_human-usages_group"
       transform="matrix(0.26264214,0,0,0.26264214,59.48042,31.472714)">
      <g
         id="h_fodder_group"
         inkscape:label="h_fodder_group"
         transform="matrix(0.6889143,0,0,0.6889143,-149.96555,195.7355)">
        <rect
           style="fill:#79c197;fill-opacity:1;stroke:#1a1a1a;stroke-width:0.05;stroke-dasharray:none"
           id="b_fodder_element"
           width="14.497613"
           height="14.497613"
           x="235.25119"
           y="5.2511935"
           transform="matrix(3.7795276,0,0,3.7795276,-668.40575,101.13054)" />
        <path
           id="h_fodder_icon"
           class="cls-4"
           d="m 229.25494,166.0997 v -3.97845 h 10.6092 c 0,-2.6523 -1.98922,-5.3046 -3.97845,-6.63075 -1.98922,-1.32615 -3.97845,-3.31538 -6.63075,-3.97845 h 3.97845 c 3.97845,0 7.9569,1.32615 10.6092,4.64152 2.6523,3.31538 4.64153,6.63075 4.64153,10.6092 h -19.22918 z m 22.54455,0 v -3.97845 c 0,-1.32615 0,-2.6523 -1.32615,-3.97845 1.32615,-1.98923 3.31538,-3.97845 5.3046,-5.3046 1.98923,-1.32615 4.64153,-1.98923 7.29383,-1.98923 2.6523,0 1.32615,0 1.98922,0 h 1.98923 c -2.6523,0 -5.3046,1.98923 -6.63075,3.97845 -1.32615,1.98923 -3.31538,3.97845 -3.97845,6.63075 h 10.6092 v 3.97845 h -15.25073 z m -3.97845,-11.27228 c 0,-1.98922 0,-3.97845 1.32615,-5.96767 1.32615,-1.98923 1.98923,-3.31538 3.31538,-4.64153 1.32615,-1.32615 2.6523,-2.6523 4.64152,-3.31537 1.98923,-0.66308 3.97845,-1.32615 5.3046,-1.32615 -1.98922,1.32615 -3.31537,2.6523 -4.64152,3.97845 -1.32615,1.32615 -1.98923,3.31537 -3.31538,5.3046 -1.32615,0 -2.6523,1.32615 -3.97845,2.6523 -1.32615,1.32615 -1.98922,1.98922 -3.31537,3.31537 v 0 z m -3.31537,-3.31537 c 0,0 0,0 -1.32615,0 -1.32615,0 0,0 -1.32615,0 v 0 -1.32615 c 0,-2.6523 0,-4.64153 -1.32615,-6.63075 -1.32615,-1.98923 -1.98923,-3.97845 -3.31538,-5.96768 1.98923,0 3.97845,1.98923 5.3046,3.97845 1.32615,1.98923 2.6523,3.31538 3.31538,5.3046 0,0 -1.32615,1.98923 -1.32615,2.6523 0,0.66308 0,1.98923 0,3.31538 v 0 z"
           inkscape:label="h_fodder_icon"
           style="fill:#000000;stroke-width:0px" />
      </g>
      <g
         id="h_fuel_group"
         inkscape:label="h_fuel_group"
         transform="matrix(0.6889143,0,0,0.6889143,-110.88079,158.04663)">
        <rect
           style="fill:#fbec53;fill-opacity:1;stroke:#1a1a1a;stroke-width:0.05;stroke-dasharray:none"
           id="b_fuel_element"
           width="14.542407"
           height="14.542407"
           x="220.22879"
           y="5.2287965"
           transform="matrix(3.7795276,0,0,3.7795276,-668.40575,101.13054)" />
        <path
           id="h_fuel_icon"
           class="cls-4"
           d="m 190.0052,158.16966 c 0,0 0,0 1.32615,0 1.32615,0 0,0 1.32615,0 1.32615,0 1.98923,0 2.6523,0 0.66308,0 1.32615,-1.32615 1.32615,-2.6523 0,-1.32615 0,-2.6523 -1.32615,-3.31538 -1.32615,-0.66307 -1.98922,-1.32615 -2.6523,-2.6523 v 5.3046 c 0,0 0,1.32615 -1.32615,1.98923 -1.32615,0.66307 -1.32615,1.32615 -1.98922,1.32615 z m -15.9138,9.28305 v -37.79528 h 37.79528 v 37.79528 z m 18.5661,-7.29383 c 1.32615,0 2.6523,0 3.97845,-1.32615 1.32615,-1.32615 1.32615,-2.6523 1.32615,-3.97845 v -1.98922 c 0,-0.66308 0,-1.32615 -1.32615,-1.32615 -1.32615,0 -1.98922,-1.98923 -2.6523,-2.6523 -0.66307,-0.66308 -1.32615,-1.98923 -1.98922,-2.6523 -1.32615,1.32615 -2.6523,1.98922 -3.31538,3.97845 -0.66307,1.98922 -1.32615,3.31537 -1.32615,4.64152 0,1.32615 0,1.98923 1.98923,3.97845 1.98922,1.98923 2.6523,1.98923 3.97845,1.98923 v 0 z m -15.25072,3.31538 h 3.97845 v -3.97845 h 3.97845 c 0,0 -1.32615,-1.98923 -1.98923,-2.6523 -0.66307,-0.66308 0,-1.98923 0,-2.6523 v -3.97845 c 0,-1.32615 0,-2.6523 1.98923,-3.97845 0,-1.32615 1.98922,-2.6523 3.31537,-3.31538 1.32615,-0.66307 3.31538,-2.6523 5.3046,-3.97845 v 4.64153 c 0,1.98922 1.98923,2.6523 3.31538,3.97845 1.32615,0 1.98922,1.32615 2.6523,2.6523 0.66307,1.32615 1.32615,1.98922 1.32615,3.97845 v 3.31537 c 0,1.32615 0,1.98923 -1.32615,2.6523 h 3.97845 v 3.97845 h 3.97845 v -29.83837 h -29.83838 v 29.83837 0 z"
           inkscape:label="h_fuel_icon"
           style="fill:#000000;stroke-width:0px" />
      </g>
      <g
         id="h_material_group"
         inkscape:label="h_material_group"
         transform="matrix(0.68460749,0,0,0.68460749,-71.238841,120.75511)">
        <rect
           style="fill:#7b6a58;fill-opacity:1;stroke:#1a1a1a;stroke-width:0.05;stroke-dasharray:none"
           id="b_material_element"
           width="14.631784"
           height="14.631784"
           x="205.18411"
           y="5.1841078"
           transform="matrix(3.7795276,0,0,3.7795276,-668.40575,101.13054)" />
        <path
           id="h_material_icon"
           class="cls-4"
           d="m 149.25851,166.90754 -11.47356,-11.47357 4.04949,-4.04949 11.47357,11.47356 z m -29.02137,0 -4.04949,-4.0495 14.17322,-14.17323 -3.37457,-3.37457 -1.34984,1.34983 -2.69966,-2.69967 v 4.0495 l -1.34983,1.34983 -6.07424,-6.07424 1.34983,-1.34983 h 4.0495 l -2.69967,-2.69967 7.42407,-7.42407 c 0,0 1.34984,-1.34983 2.02475,-1.34983 h 5.39933 c 1.34983,0 1.34983,0 2.02474,1.34983 l -4.72441,4.72441 2.69967,2.69966 -1.34983,1.34984 3.37457,3.37457 4.72441,-4.72441 v -2.69966 c 0,-2.02474 0,-4.04949 2.02475,-5.39932 2.02475,-1.34983 3.37458,-2.02475 5.39933,-2.02475 2.02474,0 1.34983,0 1.34983,0 h 1.34983 l -5.39933,5.39933 3.37458,4.04949 5.39933,-5.39933 v 2.69967 c 0,2.02474 0,4.04949 -2.02475,5.39932 -2.02475,1.34983 -3.37458,2.02475 -5.39933,2.02475 -2.02474,0 0,0 -1.34983,0 h -1.34983 l -22.94713,22.94713 v 0 z"
           inkscape:label="h_material_icon"
           style="fill:#000000;stroke-width:0px" />
        <text
           class="cls-8"
           id="t_material_score_text"
           inkscape:label="t_material_score_text"
           style="font-style:normal;font-variant:normal;font-weight:normal;font-stretch:normal;font-size:20px;font-family:ArialMT, Arial;-inkscape-font-specification:'ArialMT, Arial, Normal';font-variant-ligatures:normal;font-variant-caps:normal;font-variant-numeric:normal;font-variant-east-asian:normal;isolation:isolate;fill:#000000"
           x="128.77914"
           y="172.64763"><tspan
             x="128.77914"
             y="172.64763"
             id="tspan1"
             style="font-style:normal;font-variant:normal;font-weight:normal;font-stretch:normal;font-size:20px;font-family:ArialMT, Arial;-inkscape-font-specification:'ArialMT, Arial, Normal';font-variant-ligatures:normal;font-variant-caps:normal;font-variant-numeric:normal;font-variant-east-asian:normal;fill:#000000">3</tspan></text>
      </g>
      <g
         id="h_culinaric_group"
         inkscape:label="h_culinaric_group"
         transform="matrix(0.68405824,0,0,0.68405824,-32.370725,82.986416)">
        <rect
           style="fill:#e1b2d3;fill-opacity:1;stroke:#1a1a1a;stroke-width:0.05;stroke-dasharray:none"
           id="b_culinaric_element"
           width="14.643574"
           height="14.643573"
           x="190.17821"
           y="5.1782131"
           transform="matrix(3.7795276,0,0,3.7795276,-668.40575,101.13054)" />
        <text
           class="cls-7"
           id="h_culinaric_icon"
           style="font-style:normal;font-variant:normal;font-weight:normal;font-stretch:normal;font-size:30.007px;font-family:ArialMT, Arial;-inkscape-font-specification:'ArialMT, Arial, Normal';font-variant-ligatures:normal;font-variant-caps:normal;font-variant-numeric:normal;font-variant-east-asian:normal;isolation:isolate;fill:#000000;stroke-width:4.50104"
           x="55.570129"
           y="160.19556"
           inkscape:label="h_culinaric_icon"><tspan
             x="55.570129"
             y="160.19556"
             id="tspan2"
             style="font-style:normal;font-variant:normal;font-weight:normal;font-stretch:normal;font-size:30.007px;font-family:ArialMT, Arial;-inkscape-font-specification:'ArialMT, Arial, Normal';font-variant-ligatures:normal;font-variant-caps:normal;font-variant-numeric:normal;font-variant-east-asian:normal;fill:#000000;stroke-width:4.50104">Cul</tspan></text>
      </g>
      <g
         id="h_meds_group"
         class="cls-26"
         inkscape:label="h_meds_group"
         style="isolation:isolate"
         transform="matrix(0.67895113,0,0,0.67895113,6.4717127,45.84604)">
        <rect
           style="fill:#ebbab7;fill-opacity:1;stroke:#1a1a1a;stroke-width:0.05;stroke-dasharray:none"
           id="b_meds_element"
           width="14.754099"
           height="14.754099"
           x="175.12296"
           y="5.1229506"
           transform="matrix(3.7795276,0,0,3.7795276,-668.40575,101.13054)" />
        <path
           id="h_meds_icon"
           class="cls-4"
           d="m 15.88677,159.72657 h 6.212922 v -5.17744 h 5.177435 v -6.21292 h -5.177435 v -5.17744 H 15.88677 v 5.17744 h -5.177435 v 6.21292 h 5.177435 z m -7.2484086,7.24841 c -1.035487,0 -2.070974,0 -3.106461,-1.03549 -1.035487,-1.03549 -1.035487,-1.55323 -1.035487,-3.10646 v -22.78072 c 0,-1.03548 0,-2.07097 1.035487,-3.10646 1.035487,-1.03548 1.553231,-1.03548 3.106461,-1.03548 H 29.348101 c 1.035487,0 2.070974,0 3.106461,1.03548 1.035487,1.03549 1.035487,1.55323 1.035487,3.10646 v 22.78072 c 0,1.03549 0,2.07097 -1.035487,3.10646 -1.035487,1.03549 -1.55323,1.03549 -3.106461,1.03549 z m 0,-4.14195 H 29.348101 V 140.05231 H 8.6383614 Z M 6.5673874,133.32165 V 129.1797 H 31.936819 v 4.14195 z m 2.070974,6.73066 v 22.78072 z"
           inkscape:label="h_meds_icon"
           style="fill:#000000;stroke-width:0px" />
        <text
           class="cls-8"
           id="t_meds-score_text"
           inkscape:label="t_meds-score_text"
           style="font-style:normal;font-variant:normal;font-weight:normal;font-stretch:normal;font-size:20px;font-family:ArialMT, Arial;-inkscape-font-specification:'ArialMT, Arial, Normal';font-variant-ligatures:normal;font-variant-caps:normal;font-variant-numeric:normal;font-variant-east-asian:normal;isolation:isolate;fill:#000000"
           x="33.483814"
           y="170.93024"><tspan
             x="33.483814"
             y="170.93024"
             id="tspan3"
             style="font-style:normal;font-variant:normal;font-weight:normal;font-stretch:normal;font-size:20px;font-family:ArialMT, Arial;-inkscape-font-specification:'ArialMT, Arial, Normal';font-variant-ligatures:normal;font-variant-caps:normal;font-variant-numeric:normal;font-variant-east-asian:normal;fill:#000000">3</tspan></text>
      </g>
      <g
         id="h_eatable_group"
         inkscape:label="h_eatable_group"
         transform="matrix(0.68442375,0,0,0.68442375,45.242405,7.0226341)">
        <rect
           style="fill:#be1622;fill-opacity:1;stroke:#1a1a1a;stroke-width:0.05;stroke-dasharray:none"
           id="b_eatable_element"
           width="14.635727"
           height="14.635726"
           x="160.18214"
           y="5.1821365"
           transform="matrix(3.7795276,0,0,3.7795276,-668.40575,101.13054)" />
        <path
           id="h_eatable_icon"
           class="cls-4"
           d="m -49.936951,167.0036 v -17.40572 c -1.491919,0 -2.983838,-1.49192 -3.97845,-2.48653 -0.994613,-0.99462 -1.491919,-2.98384 -1.491919,-4.47576 v -13.42727 h 3.97845 v 13.42727 h 1.989225 v -13.42727 h 3.97845 v 13.42727 h 1.989225 v -13.42727 h 3.97845 v 13.42727 c 0,1.49192 0,3.48114 -1.491918,4.47576 -1.491919,0.99461 -2.486532,1.98922 -3.97845,2.48653 v 17.40572 z m 18.897638,0 v -14.91919 h -5.470369 v -13.42727 c 0,-2.48653 0.994613,-4.97306 2.486531,-6.46498 1.491919,-1.49192 3.97845,-2.98384 6.464982,-2.98384 v 37.79528 h -3.97845 v 0 z"
           inkscape:label="h_eatable_icon"
           style="fill:#000000;stroke-width:0px" />
        <text
           class="cls-8"
           id="t_eatable-score_text"
           inkscape:label="t_eatable-score_text"
           style="font-style:normal;font-variant:normal;font-weight:normal;font-stretch:normal;font-size:20px;font-family:ArialMT, Arial;-inkscape-font-specification:'ArialMT, Arial, Normal';font-variant-ligatures:normal;font-variant-caps:normal;font-variant-numeric:normal;font-variant-east-asian:normal;isolation:isolate;fill:#000000;stroke-width:3.67098"
           x="-25.491137"
           y="170.72661"><tspan
             x="-25.491137"
             y="170.72661"
             id="tspan4"
             style="font-style:normal;font-variant:normal;font-weight:normal;font-stretch:normal;font-size:20px;font-family:ArialMT, Arial;-inkscape-font-specification:'ArialMT, Arial, Normal';font-variant-ligatures:normal;font-variant-caps:normal;font-variant-numeric:normal;font-variant-east-asian:normal;fill:#000000;stroke-width:3.67098">4</tspan></text>
      </g>
    </g>
    <g
       id="h_eco-system-functions_group"
       inkscape:label="h_eco-system-functions_group"
       transform="matrix(0.1781523,0,0,0.1781523,-5.3497376,54.592439)">
      <g
         id="h_wind-breating_group"
         inkscape:label="h_wind-breating_group"
         style="fill:#de87cd"
         transform="translate(-37.260418,219.28181)">
        <rect
           style="fill:#de87cd;fill-opacity:1;stroke:#1a1a1a;stroke-width:0.188976;stroke-dasharray:none"
           id="b_wind-breaking_element"
           width="55.763523"
           height="55.763523"
           x="257.07443"
           y="2.2096109"
           transform="translate(-189.67546,4.1421393)" />
        <path
           d="m 97.207261,50.07487 6.047239,-8.692913 v 8.692913 z m 2.891339,-1.511813 h 1.64409 v -2.362204 z m 4.28976,1.511813 q 0.22676,-0.529137 0.49134,-1.851971 0.26457,-1.322834 0.26457,-2.683463 0,-1.36063 -0.25512,-2.796849 -0.25512,-1.43622 -0.50079,-2.116535 1.15276,0.340157 2.29606,1.266141 1.14331,0.925984 2.05985,2.211023 0.91653,1.285039 1.49291,2.825197 0.57638,1.540155 0.57638,3.146457 z m 1.96535,-1.511813 h 2.79685 q -0.32126,-1.455118 -1.04881,-2.664566 -0.72756,-1.209449 -1.54016,-2.059842 0.0378,0.39685 0.0661,0.822049 0.0284,0.425195 0.0284,0.878738 0,0.888188 -0.0851,1.644094 -0.085,0.755905 -0.21731,1.379527 z m -4.61102,5.669292 q -0.68031,0 -1.26614,-0.321263 -0.585825,-0.321263 -1.001573,-0.812598 -0.264574,0.283448 -0.576376,0.529133 -0.31181,0.245666 -0.689765,0.396851 -0.661417,-0.491339 -1.124408,-1.218899 -0.462993,-0.727557 -0.633072,-1.596848 h 15.118104 q -0.17007,0.869291 -0.63307,1.596848 -0.46299,0.72756 -1.12441,1.218899 -0.37795,-0.151195 -0.68976,-0.396851 -0.31181,-0.245666 -0.57638,-0.529133 -0.43465,0.491338 -1.01102,0.812598 -0.57638,0.321263 -1.2567,0.321263 -0.68031,0 -1.26614,-0.321263 -0.58583,-0.321263 -1.00158,-0.812598 -0.41574,0.491338 -1.00157,0.812598 -0.58583,0.321263 -1.26614,0.321263 z m -5.291334,3.023621 v -1.511811 h 0.755905 q 0.604724,0 1.181104,-0.188976 0.576376,-0.188976 1.086612,-0.566929 0.510236,0.377953 1.086613,0.557478 0.57638,0.179523 1.1811,0.179523 0.60472,0 1.17165,-0.179523 0.56693,-0.179522 1.09606,-0.557478 0.51024,0.377953 1.08662,0.557478 0.57638,0.179523 1.1811,0.179523 0.60473,0 1.17166,-0.179523 0.56693,-0.179522 1.09606,-0.557478 0.52913,0.377953 1.09606,0.566929 0.56693,0.188976 1.17165,0.188976 h 0.75591 v 1.511811 h -0.75591 q -0.58582,0 -1.15275,-0.141741 -0.56693,-0.14174 -1.11496,-0.425195 -0.54803,0.283448 -1.11496,0.425195 -0.56693,0.141741 -1.15276,0.141741 -0.58582,0 -1.15275,-0.141741 -0.56693,-0.14174 -1.11497,-0.425195 -0.54803,0.283448 -1.11496,0.425195 -0.56692,0.141741 -1.15275,0.141741 -0.58582,0 -1.15275,-0.141741 -0.56693,-0.14174 -1.114963,-0.425195 -0.548032,0.283448 -1.11496,0.425195 -0.566929,0.141741 -1.152756,0.141741 z m 5.291334,-8.692913 z m 4.61102,0 z"
           id="b_wind-breaking-on-sea_icon"
           style="fill:#000000;stroke-width:0.0188976"
           inkscape:label="b_wind-breaking-on-sea_icon" />
        <path
           id="h_wind-breaking_icon"
           class="cls-4"
           d="m 96.209682,46.518109 c -1.66744,0 -2.77907,0 -3.89069,-1.667439 -1.11163,-1.667439 -1.66744,-2.223252 -1.66744,-3.89069 h 3.89069 v 1.111626 h 2.22325 V 39.848354 H 77.867854 v -3.89069 h 17.786008 c 1.66744,0 2.77907,0 3.89069,1.667438 1.111628,1.667439 1.667438,2.223252 1.667438,3.890691 0,1.667438 0,2.779064 -1.667438,3.89069 -1.66743,1.111626 -2.22325,1.667438 -3.89069,1.667438 h 0.55582 z M 78.97948,28.176283 v -3.89069 h 25.01158 c 0,0 1.66744,0 2.22325,0 0.55581,0 0,-1.111626 0,-2.223251 0,-1.111626 0,-1.667439 0,-2.223252 0,-0.555813 -1.11163,0 -2.22325,0 -1.11163,0 -1.66744,0 -2.22325,0 -0.55582,0 0,1.111626 0,2.223252 h -3.890688 c 0,-1.667439 0,-3.334878 1.66743,-4.446503 1.667438,-1.111626 2.779068,-1.667439 4.446508,-1.667439 1.66744,0 3.33487,0 4.4465,1.667439 1.11163,1.667438 1.66744,2.779064 1.66744,4.446503 0,1.667438 0,3.334877 -1.66744,4.446503 -1.66744,1.111626 -2.77906,1.667438 -4.4465,1.667438 z m 30.56971,15.006948 v -3.89069 c 0,0 1.66744,0 2.22325,0 0.55581,0 0,-1.111626 0,-2.223251 0,-1.111626 0,-1.667439 0,-2.223252 0,-0.555813 -1.11163,0 -2.22325,0 H 78.97948 v -3.89069 h 30.56971 c 1.66744,0 3.33487,0 4.4465,1.667439 1.11163,1.667438 1.66744,2.779064 1.66744,4.446503 0,1.667438 0,3.334877 -1.66744,4.446503 -1.66744,1.111625 -2.77906,1.667438 -4.4465,1.667438 v 1.111626 z"
           inkscape:label="h_wind-breaking_icon"
           style="fill:#000000;stroke-width:0px" />
      </g>
      <g
         id="h_animal-protection_group"
         inkscape:label="h_animal-protection_group"
         transform="translate(-23.212045,111.47361)">
        <rect
           style="fill:#b17f4a;fill-opacity:1;stroke:#1a1a1a;stroke-width:0.188976;stroke-dasharray:none"
           id="b_animal-protection_element"
           width="55.763523"
           height="55.763523"
           x="200.38148"
           y="2.3822"
           transform="translate(-147.04594,55.918878)" />
        <path
           id="h_animal-protection_icon"
           class="cls-4"
           d="m 74.197274,104.41451 -3.315375,-1.32615 2.6523,-6.630746 c -3.315375,0 -5.967675,-2.6523 -7.9569,-5.3046 -1.989225,-2.6523 -3.315375,-5.96767 -3.315375,-9.28305 v -7.293825 c 0,-1.989225 0,-3.97845 1.989225,-5.3046 1.989225,-1.32615 3.315375,-1.989225 5.3046,-1.989225 h 1.989225 c 0.663075,0 1.32615,0 1.989225,0 l 11.272275,4.641525 -7.293825,2.6523 v 2.6523 l 20.555325,13.261505 1.989226,9.28305 h -3.978446 l -1.98923,-3.97845 h -9.28305 v 7.293816 h -3.978449 v -7.293816 h -3.978451 l -3.315375,7.293816 v 0 z m 3.315375,-11.272266 h 16.576875 l -2.6523,-1.98923 H 77.512649 c -1.989225,0 -3.97845,0 -5.3046,-1.98922 -1.32615,-1.98923 -1.989225,-3.31538 -1.989225,-5.3046 h 3.97845 c 0,1.32615 0,1.98922 1.32615,2.6523 1.32615,0.66307 1.32615,1.32615 2.6523,1.32615 h 7.9569 l -11.272275,-7.29383 v -5.967675 c 0,-1.32615 0,-1.989225 -1.32615,-2.6523 -1.32615,-0.663075 -1.32615,-1.32615 -2.6523,-1.32615 -1.32615,0 -1.989225,0 -2.6523,1.32615 -0.663075,1.32615 -1.32615,1.32615 -1.32615,2.6523 v 7.293825 c 0,3.31538 1.32615,5.96768 3.315375,7.9569 1.989225,1.98923 4.641525,3.31538 7.9569,3.31538 v 0 z m -7.9569,-16.57688 h -1.32615 v -2.6523 h 2.6523 v 2.6523 z"
           inkscape:label="h_animal-protection_icon"
           style="fill:#000000;stroke-width:0px" />
      </g>
      <g
         id="h_ground-cover_group"
         inkscape:label="h_ground-cover_group"
         transform="translate(-113.42573,111.75419)">
        <rect
           style="fill:#f39200;fill-opacity:1;stroke:#1a1a1a;stroke-width:0.188976;stroke-dasharray:none"
           id="b_ground-cover_element"
           width="55.763523"
           height="55.763523"
           x="143.68858"
           y="2.3822"
           transform="translate(-3.937008e-6)" />
        <path
           id="h_ground-cover_icon"
           class="cls-1"
           d="m 191.01195,31.777147 h -0.84934 c -2.54799,0 -5.09599,-3.821994 -7.64398,-4.671327 -2.548,-0.849332 -5.096,0.849333 -5.94533,2.972663 v 0.849332 c -0.84933,-0.849332 -1.69866,-1.273998 -2.54799,-1.698664 -0.84934,-0.849332 -2.12333,-1.273998 -2.97267,-1.273998 v 0 -1.273999 l 0.84934,0.849332 v 0 c 0.84933,0.849333 2.54799,1.273999 4.67132,0.849333 3.39733,-0.849333 3.822,-6.794657 4.24666,-9.767319 v 0 h -0.84933 c -1.274,2.12333 -5.52066,1.273998 -7.64399,2.547996 0,0 -0.84933,0.849332 -1.274,1.273998 -0.84933,-1.698664 -2.12333,-2.12333 -2.97266,-2.547996 -2.548,-0.849332 -6.36999,1.273998 -8.49332,0 h -0.84933 c 0.84933,2.12333 2.12333,4.671326 3.82199,6.794656 h -2.54799 c -3.822,0 -5.94533,6.794657 -6.79466,9.767319 v 0.849332 h 0.84933 c 0.84933,-0.849332 1.69867,-0.849332 2.548,-0.849332 0,0.849332 -0.84933,1.273998 -0.84933,2.12333 h 12.73998 c 1.27399,1.698664 2.97266,2.972662 4.24666,3.821994 h 0.84933 v -3.821994 h 12.31531 c 0,-0.849332 0,-1.698664 -0.84933,-2.547996 2.12333,-0.849332 3.822,-2.12333 5.52066,-2.972662 v 0 0 z m -17.18196,-9.285892 c 1.69866,-0.849332 3.76523,-0.517767 5.88856,-2.216431 -0.34518,2.209624 -1.3671,5.765928 -3.56991,6.830996 v 0 h -3.39733 c 1.69866,-0.849332 3.39733,-1.698664 4.24666,-2.972662 1.274,-1.273998 0.84933,-1.698664 0,0 -1.274,0.849332 -2.548,1.698664 -4.67133,2.12333 0,-1.273998 0,-2.547996 1.274,-3.397328 v 0 z m -4.05135,5.463898 c 0,0 -1.27399,0 -1.69866,0.849332 -0.84933,0 -1.274,0.849332 -2.12333,1.273998 v -0.849332 l -0.84933,-1.273998 h 1.274 c 1.69866,0 2.97266,-0.849333 3.82199,-1.698665 v 1.273998 h -0.42467 z m -1.0878,-6.485819 c 0.6268,0.388325 1.0878,0.96516 1.0878,2.239158 v 0 h -5.09599 c -1.69866,0 -2.12333,0 0,0.849332 1.274,0.849332 2.75692,1.101409 4.88025,1.101409 0,0.849332 -1.56921,1.310338 -3.26787,1.310338 -2.548,0 -4.58504,-3.261079 -5.43437,-5.384409 2.54799,0 5.09599,-0.849332 7.21932,0 v 0 l 0.17259,-0.202123 z m -8.67951,6.061152 v 0 c 1.69866,0 2.97266,0 3.82199,1.273999 -2.12333,0 -3.82199,1.273998 -5.09599,2.12333 -1.69867,1.273998 -1.69867,1.698664 0,0.849332 1.274,-0.849332 3.39733,-1.273998 5.52066,-1.273998 0,1.273998 0,2.972662 -2.12333,3.821994 -2.12333,0.849332 -4.9166,0.560915 -7.4646,0.560915 1.15136,-2.461702 1.80023,-4.225887 3.19071,-5.666021 l 1.20812,-1.251271 z m 12.31531,12.315315 c -1.69866,-1.698664 -5.52066,-5.095992 -4.67133,-7.643988 0,-1.698664 1.69867,-2.547996 2.548,-2.972662 v 5.520658 c 0.56622,1.415553 0.84933,1.415553 0.84933,0 0,-1.698664 0,-3.397328 0.84934,-5.520658 1.27399,0 2.54799,1.273998 2.54799,3.397328 0,2.12333 -2.54799,4.671326 -2.54799,7.643988 h 0.42466 z m 7.64399,-5.095992 v 0 c -1.69866,-0.849332 -2.12333,-2.547996 -2.12333,-3.397328 1.69866,0.849332 3.82199,1.698664 5.52066,1.698664 1.69866,0 2.12333,0 0,-0.849332 -1.69867,0 -3.39733,-1.273998 -5.09599,-2.547996 0.84933,-1.273998 2.12333,-2.123331 3.82199,-1.698664 2.12333,0.849332 3.82199,3.821994 6.36999,4.671326 -2.12333,1.273998 -6.36999,3.821994 -8.91799,2.12333 v 0 z"
           inkscape:label="h_ground-cover_icon"
           style="fill:#000000;fill-rule:evenodd;stroke-width:0px"
           sodipodi:nodetypes="csscccscccscsccccccccscccccccccccscccccscccccscccccccscccccscsccscsccccsccccscsccccccscsccccscsccccscc" />
      </g>
      <g
         id="h_pest_group"
         inkscape:label="h_pest_group"
         transform="translate(-56.733848,55.819654)">
        <rect
           style="fill:#c8db85;fill-opacity:1;stroke:#1a1a1a;stroke-width:0.188976;stroke-dasharray:none"
           id="b_pest_element"
           width="55.763523"
           height="55.763523"
           x="86.995667"
           y="2.3822"
           transform="translate(-3.937008e-6)" />
        <path
           id="h_pest_icon"
           class="cls-4"
           d="m 115.67185,48.829779 c -1.95493,0 -3.90986,0 -5.86479,-1.954928 -1.95492,-1.954928 -3.25821,-2.606571 -4.5615,-4.561499 l -5.21314,2.606571 -1.954924,-3.258214 5.213144,-3.258213 v -2.606571 h -6.516434 v -3.909856 h 6.516434 v -2.606571 l -5.213144,-3.258213 1.954924,-3.258214 4.5615,2.606571 c 0,0 0,-1.303285 1.30329,-1.303285 1.30328,0 0,0 1.30328,-1.303286 v 0 -3.909856 c 0,0 0,-1.303285 1.30329,-1.954928 l -3.25822,-3.258213 2.60658,-2.606571 3.25821,3.258213 c 0,0 1.30328,0 1.95493,0 0.65164,0 1.30328,0 1.95493,0 h 1.95492 c 0,0 1.30329,0 1.95493,0 l 3.25821,-3.258213 2.60658,2.606571 -3.25822,3.258213 c 0,0 0,1.303286 1.30329,1.954928 1.30328,0.651643 0,1.303286 0,2.606571 v 0 1.303285 c 0,0 0,0 1.30328,1.303286 1.30329,1.303285 0,1.303285 1.30329,1.303285 l 5.21314,-2.606571 1.95493,3.258214 -5.21314,3.258213 v 2.606571 h 6.51642 v 3.909856 h -6.51642 v 2.606571 l 5.21314,3.258213 -1.95493,3.258214 -5.21314,-2.606571 c -1.30329,1.954928 -2.60657,3.258214 -4.5615,4.561499 -1.95493,1.303285 -3.90986,1.954928 -5.86478,1.954928 v 0 z m -3.90986,-28.020636 h 7.81971 c 0,0 0,-1.303285 -1.30328,-1.954928 -1.30329,-0.651642 -1.30329,0 -2.60657,0 -1.30329,0 -1.95493,0 -2.60657,0 -0.65165,0 -1.30329,1.303286 -1.30329,1.954928 z m 3.90986,24.11078 c 2.60657,0 4.5615,-1.303285 5.86478,-3.258214 1.30329,-1.954928 1.95493,-4.561498 1.95493,-7.168069 0,-2.606571 0,-4.561499 -1.95493,-7.16807 -1.95493,-2.60657 -3.25821,-3.258213 -5.86478,-3.258213 -2.60657,0 -4.5615,1.303285 -5.86479,3.258213 -1.30328,1.954928 -1.95492,4.561499 -1.95492,7.16807 0,2.606571 0,5.213141 1.95492,7.168069 1.95493,1.954929 3.25822,3.258214 5.86479,3.258214 z m -1.95493,-3.909856 V 28.628856 h 3.90986 v 12.381211 z"
           inkscape:label="h_pest_icon"
           style="fill:#000000;stroke-width:0px" />
      </g>
      <g
         id="h_insects_group"
         inkscape:label="h_insects_group">
        <rect
           style="fill:#dedc00;fill-opacity:1;stroke:#1a1a1a;stroke-width:0.188976;stroke-dasharray:none"
           id="b_insects_element"
           width="55.763523"
           height="55.763523"
           x="30.302753"
           y="2.3822"
           transform="translate(-3.937008e-6)" />
        <path
           id="h_insects_icon"
           class="cls-4"
           d="m 68.979274,22.162017 -1.339203,1.339202 h -2.678405 c 0,0 0,0 0,-1.339202 V 18.81401 c 0,0 0,0 0,0 0,0 0,0 -1.339203,-1.339203 -1.339202,-1.339203 0,-1.339203 0,-1.339203 0,0 0,0 0,-1.339202 0,-1.339203 1.339203,0 1.339203,0 h 2.008804 v -2.008804 c 0,0 1.339203,-1.339203 1.339203,-1.339203 h 2.678405 c 0,0 0,0 1.339203,1.339203 v 2.008804 h 4.017608 c 0,0 0,0 1.339203,1.339202 v 1.339203 c 0,0 0,0 -1.339203,1.339203 h -1.339203 c 0,0 0,3.348007 0,3.348007 v 2.008804 c 0,0.669601 0,1.339202 0,1.339202 h -2.678405 l -1.339203,-1.339202 v 0 l -1.339203,-1.339203 z m 0,-3.348007 h 1.339203 v -2.678406 h -2.678406 v 2.678406 z m -8.035216,20.08804 c 0,2.008804 0,4.017608 0,5.356811 -1.339203,1.339203 -2.678405,2.678405 -5.356811,2.678405 -2.678405,0 -2.008804,0 -2.678405,0 -0.669602,0 -1.339203,-1.339202 -2.008804,-2.008804 -2.678406,0 -4.68721,0 -6.696014,-2.008804 -2.008804,-2.008804 -2.678405,-4.017608 -2.008804,-6.696013 0,0 -1.339202,-1.339203 -2.008804,-2.008804 -0.669601,-0.669602 0,-2.008804 0,-3.348007 0,-2.008804 0,-3.348007 2.678406,-4.687209 2.678405,-1.339203 3.348006,-1.339203 5.35681,0 l 2.678406,1.339202 c 0,-1.339202 1.339202,-2.008804 2.678405,-2.678405 1.339203,-0.669601 2.008804,0 3.348007,-1.339203 v -4.017608 h 2.678405 v 4.017608 c 1.339203,0 2.008804,0 2.678406,1.339203 0.669601,1.339203 1.339202,2.008804 2.008804,3.348007 h 4.017608 v 2.678405 h -4.017608 c 0,1.339203 0,2.008804 -1.339203,3.348007 -1.339203,1.339203 -1.339203,2.008804 -2.008804,2.678405 l 1.339203,2.678406 v 0 z m -11.383223,1.339203 v -4.687209 c 0,0 -1.339203,0 -2.008804,0 h -2.678405 c 0,1.339202 0,2.008804 1.339202,2.678405 1.339203,0.669601 1.339203,1.339203 2.678406,1.339203 v 0 z m -4.017608,-8.035216 h 2.678405 c 0.669602,0 2.008804,0 3.348007,-1.339203 L 46.212828,28.85803 h -2.008804 c 0,0 -1.339202,1.339203 -1.339202,2.008804 0,0.669601 0,1.339203 0,2.008804 0,0.669601 1.339202,0 2.678405,0 h -0.669601 z m 9.374419,10.713621 c 0,0 1.339202,0 2.008804,0 0.669601,0 0,-1.339202 0,-2.008804 l -2.678406,-6.696013 c 0,1.339203 -1.339202,2.008804 -1.339202,2.678405 v 5.356811 c 0,0 0,0 1.339202,0 h 0.669602 z m 3.348007,-10.04402 c 0,0 0,0 0,-1.339203 0,-1.339202 0,-1.339202 0,-1.339202 0,-1.339203 0,-2.008804 -1.339203,-2.678406 -1.339203,-0.669601 -1.339203,-1.339202 -2.678406,-1.339202 h -1.339202 c 0,0 0,0 -1.339203,0 l 3.348007,1.339202 1.339202,4.017608 h 1.339203 z"
           inkscape:label="h_insects_icon"
           style="fill:#000000;stroke-width:0px" />
      </g>
    </g>
    <g
       id="h_plant-nutrition_group"
       inkscape:label="h_plant-nutrition_group"
       transform="matrix(0.35342224,0,0,0.36472478,10.717239,-25.543092)">
      <g
         id="h_mineral-fix_group"
         inkscape:label="h_mineral-fix_group"
         transform="matrix(1.000314,0,0,0.99968432,0.69316892,-0.05822717)"
         style="stroke:none">
        <rect
           style="fill:#1d71b8;fill-opacity:1;stroke:#1a1a1a;stroke-width:0.0564886;stroke-dasharray:none"
           id="b_mineral-fix-element"
           width="16.876158"
           height="16.353178"
           x="70.225227"
           y="70.142487" />
        <text
           class="cls-7"
           id="h_mineral-fix_icon"
           style="font-style:normal;font-variant:normal;font-weight:normal;font-stretch:normal;font-size:6.66667px;font-family:ArialMT, Arial;-inkscape-font-specification:'ArialMT, Arial, Normal';font-variant-ligatures:normal;font-variant-caps:normal;font-variant-numeric:normal;font-variant-east-asian:normal;isolation:isolate;fill:#000000;stroke:none"
           inkscape:label="h_mineral-fix_icon"
           x="72.859879"
           y="80.680893"><tspan
             x="72.859879"
             y="80.680893"
             id="tspan5"
             style="font-style:normal;font-variant:normal;font-weight:normal;font-stretch:normal;font-size:6.66667px;font-family:ArialMT, Arial;-inkscape-font-specification:'ArialMT, Arial, Normal';font-variant-ligatures:normal;font-variant-caps:normal;font-variant-numeric:normal;font-variant-east-asian:normal;fill:#000000;stroke:none">DA</tspan></text>
      </g>
      <g
         id="N_"
         data-name="N "
         inkscape:label="h_nitrogen-fix-group"
         transform="matrix(1.0317007,0,0,0.99973394,-1.368603,0.01860298)"
         style="stroke:none">
        <rect
           style="fill:#95c11f;fill-opacity:1;stroke:#1a1a1a;stroke-width:0.0556213;stroke-dasharray:none"
           id="b_nitrogen-fix-element"
           width="16.399517"
           height="16.399517"
           x="53.685612"
           y="70.061722" />
        <text
           class="cls-7"
           id="h_nitrogen-fix-icon"
           inkscape:label="h_nitrogen-fix-icon"
           style="font-style:normal;font-variant:normal;font-weight:normal;font-stretch:normal;font-size:6.66667px;font-family:ArialMT, Arial;-inkscape-font-specification:'ArialMT, Arial, Normal';font-variant-ligatures:normal;font-variant-caps:normal;font-variant-numeric:normal;font-variant-east-asian:normal;isolation:isolate;fill:#000000;stroke:none"
           x="57.755749"
           y="80.547523"><tspan
             x="57.755749"
             y="80.547523"
             id="tspan7"
             style="font-style:normal;font-variant:normal;font-weight:normal;font-stretch:normal;font-size:6.66667px;font-family:ArialMT, Arial;-inkscape-font-specification:'ArialMT, Arial, Normal';font-variant-ligatures:normal;font-variant-caps:normal;font-variant-numeric:normal;font-variant-east-asian:normal;fill:#000000;stroke:none">N+</tspan></text>
      </g>
    </g>
    <g
       id="h_sun_group"
       transform="matrix(0.264587,0,0,0.26282813,72.039829,43.624994)"
       inkscape:label="h_sun_group">
      <rect
         style="fill:#554400;fill-opacity:1;stroke:#1a1a1a;stroke-width:0.188976;stroke-dasharray:none"
         id="b_sun_shadow_element"
         width="14.978298"
         height="14.978297"
         x="-22.811436"
         y="24.259922" />
      <path
         id="h_sun-shadow_icon"
         class="cls-3"
         d="m -15.502251,36.525269 -1.349825,-1.34983 h -2.024758 v -2.024751 l -1.349826,-1.34983 1.349826,-1.349829 v -2.024751 h 2.024758 l 1.349825,-1.34983 1.349825,1.34983 h 2.024759 v 2.024751 l 1.349826,1.349829 -1.349826,1.34983 v 2.024751 h -2.024759 z m 0,-1.181103 1.012379,-1.012375 h 1.518549 v -1.518557 l 1.012379,-1.012376 -1.012379,-1.012375 v -1.518557 h -1.518549 l -1.012379,-1.012375 -1.012378,1.012375 h -1.518549 v 1.518557 l -1.012379,1.012375 1.012379,1.012376 v 1.518557 h 1.518549 z"
         inkscape:label="h_sun-shadow_icon"
         sodipodi:nodetypes="cccccccccccccccccccccccccccccccccc"
         style="fill:#000000;stroke-width:0px" />
      <rect
         style="fill:#c8ab37;fill-opacity:1;stroke:#1a1a1a;stroke-width:0.188976;stroke-dasharray:none"
         id="b_sun_mid_element"
         width="14.978298"
         height="14.978297"
         x="-37.862068"
         y="24.269753" />
      <path
         id="h_sun-mid_icon"
         class="cls-3"
         d="m -30.137643,36.610742 -1.349826,-1.349826 h -2.024718 v -2.024758 l -1.349866,-1.349825 1.349866,-1.349826 v -2.024754 h 2.024718 l 1.349826,-1.34983 1.349865,1.34983 h 2.024718 v 2.024754 l 1.349826,1.349826 -1.349826,1.349825 v 2.024758 h -2.024718 z m 0,-2.699651 c 0.506209,0 1.012379,0 1.518588,-0.674933 0.50617,-0.674893 0.674893,-0.843656 0.674893,-1.518549 0,-0.674933 0,-1.012379 -0.674893,-1.518548 -0.674932,-0.506206 -0.843656,-0.674933 -1.518588,-0.674933 v 4.21824 0 z m 0,1.518549 1.012379,-1.01238 h 1.518589 v -1.518548 l 1.012339,-1.012379 -1.012339,-1.01238 v -1.518552 h -1.518589 l -1.012379,-1.012376 -1.01234,1.012376 h -1.518588 v 1.518552 l -1.01238,1.01238 1.01238,1.012379 v 1.518548 h 1.518588 z"
         inkscape:label="h_sun-mid_icon"
         style="fill:#000000;stroke-width:0px" />
      <rect
         style="fill:#ffcc00;fill-opacity:1;stroke:#1a1a1a;stroke-width:0.188976;stroke-dasharray:none"
         id="b_sun-full_element"
         width="14.978298"
         height="14.978297"
         x="-53.007164"
         y="24.218586" />
      <path
         id="h_sun-full_icon"
         class="cls-3"
         d="m -45.503621,36.433326 -1.349826,-1.34983 h -2.024758 v -2.02475 l -1.349826,-1.349829 1.349826,-1.34983 v -2.02475 h 2.024758 l 1.349826,-1.34983 1.349825,1.34983 h 2.024758 v 2.02475 l 1.349826,1.34983 -1.349826,1.349829 v 2.02475 h -2.024758 z m 0,-2.699663 c 0.506169,0 1.012379,0 1.518548,-0.674917 0.50621,-0.674913 0.674933,-0.843644 0.674933,-1.518557 0,-0.674916 0,-1.012375 -0.674933,-1.51856 -0.674892,-0.50619 -0.843656,-0.674917 -1.518548,-0.674917 -0.674933,0 -1.01238,0 -1.518549,0.674917 -0.50621,0.674912 -0.674933,0.843644 -0.674933,1.51856 0,0.674913 0,1.012371 0.674933,1.518557 0.674892,0.50619 0.843616,0.674917 1.518549,0.674917 z m 0,1.518561 1.012379,-1.012376 h 1.518548 v -1.518556 l 1.01238,-1.012375 -1.01238,-1.012376 v -1.518556 h -1.518548 l -1.012379,-1.012376 -1.01238,1.012376 h -1.518548 v 1.518556 l -1.01238,1.012376 1.01238,1.012375 v 1.518556 h 1.518548 z"
         inkscape:label="h_sun-full_icon"
         style="fill:#000000;stroke-width:0px" />
    </g>
    <g
       id="h_wet_group"
       transform="matrix(0.26652805,0,0,0.27072121,-7.0579813,41.295205)"
       inkscape:label="h_water_group"
       style="fill:#ffffff;stroke:#ff0000">
      <rect
         style="fill:#0044aa;fill-opacity:1;stroke:#1a1a1a;stroke-width:0.05;stroke-dasharray:none"
         id="b_water-wet_element"
         width="3.8518107"
         height="3.8518109"
         x="11.190511"
         y="16.079361"
         transform="matrix(3.7795276,0,0,3.7795276,14.971738,-28.224064)" />
      <path
         id="h_water-wet_icon"
         class="cls-3"
         d="m 64.911916,44.487853 c -1.111624,0 -2.084297,-0.416859 -2.779066,-1.111624 -0.694765,-0.694766 -1.111624,-1.667439 -1.111624,-2.779066 0,-1.111625 0,-0.972673 0.277897,-1.528487 0,-0.416859 0.416859,-0.833717 0.833717,-1.250576 l 2.779076,-2.779066 2.779066,2.779066 c 0.416859,0.416859 0.694766,0.833717 0.833718,1.250576 0.138948,0.416862 0.277897,0.972673 0.277897,1.528487 0,1.111627 -0.416859,1.945345 -1.111625,2.779066 -0.694769,0.833717 -1.667441,1.111624 -2.779066,1.111624 z"
         inkscape:label="h_water-wet_icon"
         style="fill:#000000;stroke:#ff0000;stroke-width:0px" />
      <rect
         style="fill:#80b3ff;fill-opacity:1;stroke:#1a1a1a;stroke-width:0.05;stroke-dasharray:none"
         id="b_water-mid_element"
         width="4.2712307"
         height="3.8441076"
         x="6.9235096"
         y="16.081881"
         transform="matrix(3.7795276,0,0,3.7795276,14.971738,-28.224064)" />
      <path
         id="h_water-mid_icon"
         class="cls-3"
         d="m 49.068263,44.485031 c -1.111627,0 -2.0843,-0.416862 -2.779065,-1.111627 -0.694765,-0.694766 -1.111624,-1.667438 -1.111624,-2.779062 0,-1.111627 0,-0.972672 0.277897,-1.528486 0,-0.416859 0.416859,-0.83372 0.833717,-1.250579 l 2.779065,-2.779065 2.779062,2.779065 c 0.416862,0.416859 0.694765,0.83372 0.83372,1.250579 0.138949,0.416859 0.277897,0.972672 0.277897,1.528486 0,1.111624 -0.416862,1.945345 -1.111627,2.779062 -0.694766,0.83372 -1.667438,1.111627 -2.779062,1.111627 z m -2.918017,-3.890689 h 5.836034 c 0,-0.416862 0,-0.694769 -0.277897,-1.111627 -0.277897,-0.416859 -0.416859,-0.694766 -0.694766,-0.972673 l -2.084309,-2.084296 -2.084296,2.084296 c -0.277897,0.277897 -0.416859,0.555814 -0.694766,0.972673 -0.277897,0.416858 -0.277897,0.694765 -0.277897,1.111627 z"
         inkscape:label="h_water-mid_icon"
         style="fill:#000000;stroke:#ff0000;stroke-width:0px" />
      <rect
         style="fill:#ffdd55;fill-opacity:1;stroke:#1a1a1a;stroke-width:0.05;stroke-dasharray:none"
         id="b_water-dry_element"
         width="3.8518112"
         height="3.8518112"
         x="3.0702105"
         y="16.078873"
         transform="matrix(3.7795276,0,0,3.7795276,14.971738,-28.224064)" />
      <path
         id="h_water-dry_icon"
         class="cls-3"
         d="m 33.78863,44.315246 c -1.111624,0 -2.084297,-0.416859 -2.779066,-1.111624 -0.694765,-0.694766 -1.111624,-1.667439 -1.111624,-2.779066 0,-1.111625 0,-0.972673 0.277897,-1.528487 0,-0.416859 0.416859,-0.833717 0.833717,-1.250576 l 2.779066,-2.779066 2.779066,2.779066 c 0.416859,0.416859 0.694766,0.833717 0.833718,1.250576 0.138948,0.416862 0.277897,0.972673 0.277897,1.528487 0,1.111627 -0.416859,1.945345 -1.111624,2.779066 -0.694769,0.833717 -1.667442,1.111624 -2.779066,1.111624 z m 0,-0.972673 c 0.833721,0 1.528487,-0.277897 2.084297,-0.833717 0.555814,-0.555814 0.833721,-1.25058 0.833721,-2.0843 0,-0.833718 0,-0.694766 -0.277897,-1.111625 -0.277897,-0.416862 -0.416859,-0.694765 -0.694766,-0.972672 l -2.084297,-2.084301 -2.0843,2.084301 c -0.277897,0.277897 -0.416859,0.55581 -0.694765,0.972672 -0.277898,0.416859 -0.277898,0.694766 -0.277898,1.111625 0,0.83372 0.277898,1.528486 0.833721,2.0843 0.555811,0.55581 1.25058,0.833717 2.084297,0.833717 z"
         inkscape:label="h_water-dry_icon"
         style="fill:#000000;stroke:#ff0000;stroke-width:0px" />
      <rect
         style="fill:#0000d4;fill-opacity:1;stroke:#1a1a1a;stroke-width:0.05;stroke-dasharray:none"
         id="b_water-plant_element"
         width="3.8518107"
         height="3.8518109"
         x="15.051262"
         y="16.071289"
         transform="matrix(3.7795276,0,0,3.7795276,14.971738,-28.224064)"
         inkscape:label="b_water-plant_element" />
      <path
         d="m 74.806357,43.941185 v -0.921044 q 0.34246,0 0.584511,-0.106254 0.242059,-0.106254 0.49004,-0.230231 0.247994,-0.123977 0.549086,-0.224337 0.301121,-0.10036 0.738014,-0.10036 0.448714,0 0.738018,0.10036 0.289292,0.10036 0.537273,0.224337 0.247994,0.123977 0.495951,0.230231 0.247994,0.106254 0.590409,0.106254 0.342459,0 0.590417,-0.106254 0.247993,-0.106254 0.495947,-0.230231 0.247992,-0.123977 0.543175,-0.224337 0.295186,-0.10036 0.732115,-0.10036 0.448714,0 0.743917,0.10036 0.295186,0.10036 0.543188,0.224337 0.247952,0.123977 0.495942,0.230231 0.247993,0.106254 0.578601,0.106254 v 0.921044 q -0.448714,0 -0.749827,-0.106294 -0.30112,-0.106255 -0.549078,-0.230271 -0.247993,-0.123977 -0.484138,-0.224337 -0.236165,-0.100361 -0.578605,-0.100361 -0.33063,0 -0.572697,0.100361 -0.24206,0.10036 -0.484143,0.224337 -0.242059,0.123976 -0.543175,0.230271 -0.301122,0.106294 -0.761639,0.106294 -0.460522,0 -0.761631,-0.106294 -0.30112,-0.106255 -0.54318,-0.230271 -0.242059,-0.123977 -0.478236,-0.224337 -0.236165,-0.100361 -0.578604,-0.100361 -0.330631,0 -0.572699,0.100361 -0.242059,0.10036 -0.490044,0.224337 -0.247993,0.123976 -0.549082,0.230271 -0.30112,0.106294 -0.749826,0.106294 z m 0,-2.101869 v -0.92104 q 0.34246,0 0.584511,-0.106254 0.242059,-0.106295 0.49004,-0.230271 0.247994,-0.123977 0.549086,-0.224337 0.301121,-0.100361 0.738014,-0.100361 0.448714,0 0.738018,0.100361 0.289292,0.10036 0.537273,0.224337 0.247994,0.123976 0.495951,0.230271 0.247994,0.106254 0.590409,0.106254 0.342459,0 0.590417,-0.106254 0.247993,-0.106295 0.495947,-0.230271 0.247992,-0.123977 0.543175,-0.224337 0.295186,-0.100361 0.732115,-0.100361 0.448714,0 0.743917,0.100361 0.295186,0.10036 0.543188,0.224337 0.247952,0.123976 0.495942,0.230271 0.247993,0.106254 0.578601,0.106254 v 0.92104 q -0.448714,0 -0.749827,-0.106255 -0.30112,-0.106294 -0.549078,-0.230271 -0.247993,-0.123976 -0.484138,-0.224336 -0.236165,-0.100361 -0.578605,-0.100361 -0.342458,0 -0.58451,0.100361 -0.242059,0.10036 -0.484138,0.224336 -0.242059,0.123977 -0.537278,0.230271 -0.295187,0.106255 -0.755728,0.106255 -0.460522,0 -0.761631,-0.106255 -0.30112,-0.106294 -0.54318,-0.230271 -0.242059,-0.123976 -0.478236,-0.224336 -0.236165,-0.100361 -0.578604,-0.100361 -0.330631,0 -0.572699,0.100361 -0.242059,0.10036 -0.490044,0.224336 -0.247993,0.123977 -0.549082,0.230271 -0.30112,0.106255 -0.749826,0.106255 z m 0,-2.10187 v -0.92104 q 0.34246,0 0.584511,-0.106294 0.242059,-0.106254 0.49004,-0.230271 0.247994,-0.123977 0.549086,-0.224336 0.301121,-0.100361 0.738014,-0.100361 0.448714,0 0.738018,0.100361 0.289292,0.100359 0.537273,0.224336 0.247994,0.123977 0.495951,0.230271 0.247994,0.106294 0.590409,0.106294 0.342459,0 0.590417,-0.106294 0.247993,-0.106254 0.495947,-0.230271 0.247992,-0.123977 0.543175,-0.224336 0.295186,-0.100361 0.732115,-0.100361 0.448714,0 0.743917,0.100361 0.295186,0.100359 0.543188,0.224336 0.247952,0.123977 0.495942,0.230271 0.247993,0.106294 0.578601,0.106294 v 0.92104 q -0.448714,0 -0.749827,-0.106254 -0.30112,-0.106254 -0.549078,-0.230231 -0.247993,-0.123976 -0.484138,-0.224336 -0.236165,-0.100361 -0.578605,-0.100361 -0.33063,0 -0.572697,0.100361 -0.24206,0.10036 -0.484143,0.224336 -0.242059,0.123977 -0.543175,0.230231 -0.301122,0.106254 -0.761639,0.106254 -0.460522,0 -0.761631,-0.106254 -0.30112,-0.106254 -0.54318,-0.230231 -0.242059,-0.123976 -0.478236,-0.224336 -0.236165,-0.100361 -0.578604,-0.100361 -0.330631,0 -0.572699,0.100361 -0.242059,0.10036 -0.490044,0.224336 -0.247993,0.123977 -0.549082,0.230231 -0.30112,0.106254 -0.749826,0.106254 z m 0,-2.101869 v -0.921044 q 0.34246,0 0.584511,-0.106254 0.242059,-0.106294 0.49004,-0.230271 0.247994,-0.123977 0.549086,-0.224337 0.301121,-0.10036 0.738014,-0.10036 0.448714,0 0.738018,0.10036 0.289292,0.10036 0.537273,0.224337 0.247994,0.123977 0.495951,0.230271 0.247994,0.106254 0.590409,0.106254 0.342459,0 0.590417,-0.106254 0.247993,-0.106294 0.495947,-0.230271 0.247992,-0.123977 0.543175,-0.224337 0.295186,-0.10036 0.732115,-0.10036 0.448714,0 0.743917,0.10036 0.295186,0.10036 0.543188,0.224337 0.247952,0.123977 0.495942,0.230271 0.247993,0.106254 0.578601,0.106254 v 0.921044 q -0.448714,0 -0.749827,-0.106254 -0.30112,-0.106254 -0.549078,-0.230231 -0.247993,-0.123977 -0.484138,-0.224337 -0.236165,-0.10036 -0.578605,-0.10036 -0.33063,0 -0.572697,0.10036 -0.24206,0.10036 -0.484143,0.224337 -0.242059,0.123977 -0.543175,0.230231 -0.301122,0.106254 -0.761639,0.106254 -0.460522,0 -0.761631,-0.106254 -0.30112,-0.106254 -0.54318,-0.230231 -0.242059,-0.123977 -0.478236,-0.224337 -0.236165,-0.10036 -0.578604,-0.10036 -0.330631,0 -0.572699,0.10036 -0.242059,0.10036 -0.490044,0.224337 -0.247993,0.123977 -0.549082,0.230231 -0.30112,0.106254 -0.749826,0.106254 z"
         id="h_walter-plant_icon"
         style="fill:#000000;stroke:#ff0000;stroke-width:0.0118082"
         inkscape:label="h_walter-plant_icon" />
    </g>
    <g
       id="h_grow-speed_group"
       transform="matrix(0.43859649,0,0,0.43859649,33.315289,88.617183)"
       inkscape:label="h_grow-speed_group">
      <path
         id="b_grow-speed-mid_icon"
         class="cls-3"
         d="M 74.4,65.3 C 74.2,64.9 74,64.5 73.6,64.2 73.2,63.9 72.9,63.6 72.5,63.4 72.3,63.4 72,63.2 71.8,63.2 V 64 c 0.6,0 1,0.4 1.4,0.7 0.6,0.6 0.8,1.2 0.8,2 0,0.8 0,0.5 0,0.7 0,0.2 -0.2,0.5 -0.3,0.7 h -4.9 c 0,-0.2 -0.2,-0.4 -0.3,-0.7 0,-0.3 0,-0.5 0,-0.7 0,-0.8 0.3,-1.4 0.8,-2 0.3,-0.3 0.8,-0.6 1.2,-0.7 v -0.8 c 0,0 -0.3,0 -0.5,0.2 -0.4,0.2 -0.8,0.4 -1.1,0.8 -0.3,0.3 -0.6,0.7 -0.8,1.1 -0.2,0.4 -0.3,0.9 -0.3,1.4 0,0.5 0,0.7 0,0.9 0,0.3 0.2,0.6 0.3,0.8 0,0 0.2,0.2 0.3,0.2 h 5.5 c 0,0 0.2,0 0.3,-0.2 0.2,-0.3 0.3,-0.6 0.3,-0.8 0,-0.3 0,-0.6 0,-0.9 0,-0.5 0,-0.9 -0.3,-1.4 z m -3.8,0.9 -0.2,0.8 c 0,0.2 0,0.4 0.2,0.5 0.2,0.1 0.3,0.2 0.5,0.2 0.2,0 0.4,0 0.5,-0.2 v -0.6 l -0.7,-3.5 -0.5,2.7 h 0.2 z"
         inkscape:label="b_grow-speed-mid_icon"
         style="fill:#010101;stroke-width:0px" />
      <path
         id="b_grow-speed-low_icon"
         class="cls-3"
         d="m 71.9,66.7 c 0,-0.2 0,-0.4 -0.2,-0.5 l -3,-2 2,3 c 0,0.2 0.3,0.2 0.5,0.2 0.2,0 0.4,0 0.6,-0.2 C 72,67 72,66.9 72,66.7 v 0 z m 0.6,-3.3 c 0.4,0.2 0.8,0.4 1.1,0.8 0.3,0.4 0.6,0.7 0.8,1.1 0.2,0.4 0.3,0.9 0.3,1.4 0,0.5 0,0.7 0,0.9 0,0.2 -0.2,0.6 -0.3,0.8 0,0 -0.2,0.2 -0.3,0.2 h -5.5 c -0.1,0 -0.2,0 -0.3,-0.2 -0.2,-0.3 -0.3,-0.6 -0.4,-0.9 -0.1,-0.3 0,-0.6 0,-1 0,-0.4 0,-0.7 0.2,-1 0,-0.3 0.2,-0.6 0.4,-0.9 l 0.4,0.7 c 0,0.2 -0.2,0.4 -0.2,0.6 v 1.4 c 0,0.3 0.2,0.5 0.3,0.7 h 4.9 c 0,-0.2 0.2,-0.4 0.3,-0.7 0.1,-0.3 0,-0.5 0,-0.7 0,-0.8 -0.3,-1.4 -0.8,-2 -0.6,-0.6 -1.2,-0.8 -2,-0.8 -0.8,0 -0.4,0 -0.6,0 -0.2,0 -0.4,0 -0.6,0.2 l -0.7,-0.4 c 0.3,-0.2 0.6,-0.3 0.9,-0.4 0.3,-0.1 0.7,-0.2 1,-0.2 0.3,0 0.9,0 1.4,0.3 h -0.1 z"
         inkscape:label="b_grow-speed-low_icon"
         style="fill:#010101;stroke-width:0px" />
      <path
         id="b_grow-speed-high_icon"
         class="cls-3"
         d="m 70.6,67.2 c 0,0 0.3,0.2 0.6,0.2 0.3,0 0.4,0 0.5,-0.2 l 2,-3 -3,2 c -0.2,0 -0.2,0.3 -0.2,0.5 0,0.2 0,0.4 0.2,0.5 v 0 z m 0.5,-4.1 c 0.3,0 0.7,0 1,0.2 0.3,0.2 0.6,0.2 0.9,0.4 l -0.7,0.4 c -0.2,0 -0.4,-0.2 -0.6,-0.2 h -0.6 c -0.8,0 -1.4,0.3 -2,0.8 -0.6,0.6 -0.8,1.2 -0.8,2 0,0.8 0,0.5 0,0.7 0,0.2 0.2,0.5 0.3,0.7 h 4.9 c 0,-0.2 0.2,-0.5 0.3,-0.7 0.1,-0.2 0,-0.5 0,-0.8 V 66 c 0,-0.2 0,-0.4 -0.2,-0.6 L 74,64.7 c 0.2,0.3 0.3,0.6 0.4,0.9 0,0.3 0.2,0.6 0.2,1 0,0.4 0,0.7 0,1 0,0.3 -0.2,0.6 -0.4,0.9 0,0 -0.2,0.2 -0.3,0.2 h -5.5 c -0.1,0 -0.2,0 -0.3,-0.2 -0.2,-0.3 -0.3,-0.6 -0.3,-0.8 0,-0.2 0,-0.6 0,-0.9 0,-0.5 0,-0.9 0.3,-1.4 0.3,-0.5 0.4,-0.8 0.8,-1.1 0.4,-0.3 0.7,-0.6 1.1,-0.8 0.4,-0.2 0.9,-0.3 1.4,-0.3 h -0.1 z"
         inkscape:label="b_grow-speed-high_icon"
         style="fill:#010101;stroke-width:0px" />
    </g>
    <g
       id="h_climate-zone_group"
       transform="matrix(0.50675436,0,0,0.50675436,-29.638396,99.992406)"
       inkscape:label="h_climate-zone_group">
      <text
         class="cls-25"
         id="t_climate-zone_text"
         inkscape:label="t_climate-zone_text"
         style="font-style:normal;font-variant:normal;font-weight:normal;font-stretch:normal;font-size:6.96151px;font-family:ArialMT, Arial;-inkscape-font-specification:'ArialMT, Arial, Normal';font-variant-ligatures:normal;font-variant-caps:normal;font-variant-numeric:normal;font-variant-east-asian:normal;isolation:isolate;fill:#000000"
         x="69.214989"
         y="33.529236"><tspan
           x="69.214989"
           y="33.529236"
           id="tspan10"
           style="font-style:normal;font-variant:normal;font-weight:normal;font-stretch:normal;font-size:6.96151px;font-family:ArialMT, Arial;-inkscape-font-specification:'ArialMT, Arial, Normal';font-variant-ligatures:normal;font-variant-caps:normal;font-variant-numeric:normal;font-variant-east-asian:normal">5-9</tspan></text>
      <path
         id="h_climate-icon"
         class="cls-2"
         d="m 65.266678,33.452848 c -0.308334,0 -0.616669,0 -0.925004,-0.205557 C 64.033339,33.144513 63.725004,32.938956 63.519448,32.7334 63.313891,32.527843 63.108335,32.219508 63.005557,31.911174 62.902778,31.602839 62.8,31.294504 62.8,30.986169 c 0,-0.308334 0,-0.616669 0.205557,-0.925004 0.102778,-0.308335 0.308334,-0.61667 0.513891,-0.822226 0.205556,-0.205557 0.513891,-0.411113 0.822226,-0.513891 0.308335,-0.102779 0.61667,-0.205557 0.925004,-0.205557 0.308335,0 0.61667,0 0.925005,0.205557 0.308334,0.102778 0.616669,0.308334 0.822226,0.513891 0.205556,0.205556 0.411113,0.513891 0.513891,0.822226 0.102778,0.308335 0.205557,0.61667 0.205557,0.925004 0,0.308335 0,0.61667 -0.205557,0.925005 -0.102778,0.308334 -0.308335,0.616669 -0.513891,0.822226 -0.205557,0.205556 -0.513892,0.411113 -0.822226,0.513891 -0.308335,0.102778 -0.61667,0.205557 -0.925005,0.205557 z m -0.308334,-0.513892 v -0.513891 c -0.102779,0 -0.205557,0 -0.308335,-0.102778 0,0 -0.102779,-0.205557 -0.102779,-0.308335 v -0.205557 l -1.233339,-1.233339 c 0,0 0,0.102779 0,0.205557 0,0 0,0.102778 0,0.205556 0,0.513892 0.205557,0.925005 0.513892,1.336118 0.308334,0.411113 0.719447,0.616669 1.233339,0.616669 z m 1.74723,-0.616669 c 0,0 0.205557,-0.205557 0.205557,-0.308335 0,-0.102778 0.102778,-0.205557 0.205556,-0.308335 0,-0.102778 0,-0.205556 0,-0.308335 0,-0.102778 0,-0.205556 0,-0.411113 0,-0.411113 -0.102778,-0.822226 -0.308335,-1.130561 -0.205556,-0.308334 -0.513891,-0.616669 -0.925004,-0.719447 v 0 c 0,0.205556 0,0.308334 -0.102778,0.411113 0,0 -0.205557,0.102778 -0.308335,0.102778 h -0.513891 v 0.513891 c 0,0 0,0.102778 0,0.205557 0,0 -0.102779,0 -0.205557,0 h -0.513891 v 0.513891 h 1.541674 c 0,0 0.102778,0 0.205556,0 0,0 0,0.102778 0,0.205557 v 0.719447 h 0.205557 c 0.102778,0 0.205556,0 0.308334,0 0,0 0.102779,0.102779 0.205557,0.205557 z"
         inkscape:label="h_climate-icon"
         style="fill:#000000;stroke-width:0px" />
    </g>
    <g
       id="h_ph_group"
       inkscape:label="h_ph_group"
       transform="matrix(0.26458333,0,0,0.26458333,24.153138,116.48063)">
      <text
         xml:space="preserve"
         style="font-style:normal;font-variant:normal;font-weight:normal;font-stretch:normal;font-size:4.66667px;font-family:ArialMT, Arial;-inkscape-font-specification:'ArialMT, Arial, Normal';font-variant-ligatures:normal;font-variant-caps:normal;font-variant-numeric:normal;font-variant-east-asian:normal;fill:#ffffff"
         x="104.104"
         y="-36.188366"
         id="h_ph_text"
         inkscape:label="h_ph_text"><tspan
           sodipodi:role="line"
           id="tspan63"
           x="104.104"
           y="-36.188366"
           style="font-style:normal;font-variant:normal;font-weight:normal;font-stretch:normal;font-size:4.66667px;font-family:ArialMT, Arial;-inkscape-font-specification:'ArialMT, Arial, Normal';font-variant-ligatures:normal;font-variant-caps:normal;font-variant-numeric:normal;font-variant-east-asian:normal;fill:#000000">PH:</tspan></text>
      <rect
         style="fill:#7f2aff;fill-opacity:1;stroke:#1a1a1a;stroke-width:0.188976;stroke-dasharray:none"
         id="b_ph-saline_element"
         width="18.909044"
         height="9.2809601"
         x="112.23929"
         y="-42.273571" />
      <rect
         style="fill:#0066ff;fill-opacity:1;stroke:#1a1a1a;stroke-width:0.188976;stroke-dasharray:none"
         id="b_ph-very-alkaline_element"
         width="18.890362"
         height="9.2717905"
         x="112.24873"
         y="-32.885956" />
      <rect
         style="fill:#2ca089;fill-opacity:1;stroke:#1a1a1a;stroke-width:0.188976;stroke-dasharray:none"
         id="b_ph-alkaline_element"
         width="18.797394"
         height="9.2261591"
         x="112.29527"
         y="-23.541037" />
      <rect
         style="fill:#00d400;fill-opacity:1;stroke:#1a1a1a;stroke-width:0.188976;stroke-dasharray:none"
         id="b_ph-neutral_element"
         width="18.70455"
         height="9.1805906"
         x="112.34152"
         y="-14.196154" />
      <rect
         style="fill:#ffd42a;fill-opacity:1;stroke:#1a1a1a;stroke-width:0.188976;stroke-dasharray:none"
         id="b_ph-acid_element"
         width="18.592808"
         height="9.1257448"
         x="112.39757"
         y="-4.9684834" />
      <rect
         style="fill:#ff5555;fill-opacity:1;stroke:#1a1a1a;stroke-width:0.188976;stroke-dasharray:none"
         id="b_ph-very-acid_element"
         width="18.592808"
         height="9.1257448"
         x="112.41718"
         y="4.2126698" />
    </g>
    <text
       id="t_common-name_text"
       class="cls-24"
       y="58.095055"
       x="35.32349"
       text-anchor="middle"
       dominant-baseline="middle"
       inkscape:label="t_common-name_text"
       style="font-style:normal;font-variant:normal;font-weight:normal;font-stretch:normal;font-size:3.52778px;font-family:ArialMT, Arial;-inkscape-font-specification:'ArialMT, Arial, Normal';font-variant-ligatures:normal;font-variant-caps:normal;font-variant-numeric:normal;font-variant-east-asian:normal;dominant-baseline:middle;text-anchor:middle;isolation:isolate;fill:#000000;stroke-width:0.264583">Common Name</text>
    <text
       id="t_latin-name_text"
       class="cls-23"
       y="61.10392"
       x="30.658222"
       text-anchor="middle"
       dominant-baseline="middle"
       style="font-style:normal;font-variant:normal;font-weight:normal;font-stretch:normal;font-size:3.52778px;font-family:ArialMT, Arial;-inkscape-font-specification:'ArialMT, Arial, Normal';font-variant-ligatures:normal;font-variant-caps:normal;font-variant-numeric:normal;font-variant-east-asian:normal;dominant-baseline:middle;text-anchor:middle;isolation:isolate;fill:#000000;stroke-width:0.264583">Lat Name</text>
    <text
       xml:space="preserve"
       style="font-style:normal;font-variant:normal;font-weight:normal;font-stretch:normal;font-size:3.52778px;font-family:ArialMT, Arial;-inkscape-font-specification:'ArialMT, Arial, Normal';font-variant-ligatures:normal;font-variant-caps:normal;font-variant-numeric:normal;font-variant-east-asian:normal;fill:#000000;stroke-width:0.264583"
       x="5.2540722"
       y="110.53559"
       id="t_height_text"
       inkscape:label="t_height_text"><tspan
         sodipodi:role="line"
         id="tspan6"
         x="5.2540722"
         y="110.53559"
         style="font-style:normal;font-variant:normal;font-weight:normal;font-stretch:normal;font-size:3.52778px;font-family:ArialMT, Arial;-inkscape-font-specification:'ArialMT, Arial, Normal';font-variant-ligatures:normal;font-variant-caps:normal;font-variant-numeric:normal;font-variant-east-asian:normal;stroke-width:0.264583">1-2m</tspan></text>
    <path
       d="m 3.0124204,110.55148 -0.55555,-0.55555 0.19448,-0.19448 0.22222,0.21873 v -1.43744 l -0.22222,0.21875 -0.19448,-0.19448 0.55555,-0.55553 0.55553,0.55553 -0.19448,0.1979 -0.22222,-0.22221 v 1.43744 l 0.22222,-0.21873 0.19448,0.19448 z"
       id="h_hight_icon"
       style="stroke-width:0.00347209"
       inkscape:label="h_hight_icon" />
    <text
       xml:space="preserve"
       style="font-style:normal;font-variant:normal;font-weight:normal;font-stretch:normal;font-size:3.52778px;font-family:ArialMT, Arial;-inkscape-font-specification:'ArialMT, Arial, Normal';font-variant-ligatures:normal;font-variant-caps:normal;font-variant-numeric:normal;font-variant-east-asian:normal;fill:#000000;stroke-width:0.264583"
       x="25.089588"
       y="110.53559"
       id="t_width_text"
       inkscape:label="t_width_text"><tspan
         sodipodi:role="line"
         id="tspan6-7"
         x="25.089588"
         y="110.53559"
         style="font-style:normal;font-variant:normal;font-weight:normal;font-stretch:normal;font-size:3.52778px;font-family:ArialMT, Arial;-inkscape-font-specification:'ArialMT, Arial, Normal';font-variant-ligatures:normal;font-variant-caps:normal;font-variant-numeric:normal;font-variant-east-asian:normal;stroke-width:0.264583">1-2m</tspan></text>
    <path
       d="m 22.249441,109.95826 -0.55554,-0.55554 0.55554,-0.55554 0.19793,0.19448 -0.22222,0.2222 h 1.43748 l -0.21876,-0.2222 0.19449,-0.19448 0.55554,0.55554 -0.55554,0.55554 -0.19449,-0.19448 0.21876,-0.2222 h -1.43748 l 0.21874,0.2222 z"
       id="h_width_icon"
       style="stroke-width:0.00347217"
       inkscape:label="h_width_icon" />
  </g>
</svg>
